<?xml version="1.0" encoding="utf-8"?>
<!-- Generator: Adobe Illustrator 26.3.1, SVG Export Plug-In . SVG Version: 6.00 Build 0)  -->
<svg version="1.1" id="Layer_1" xmlns="http://www.w3.org/2000/svg" xmlns:xlink="http://www.w3.org/1999/xlink" x="0px" y="0px"
	 viewBox="0 0 685 509" style="enable-background:new 0 0 685 509;" xml:space="preserve">
<style type="text/css">
	.st0{fill:#007640;}
</style>
<g>
	<g>
		<path class="st0" d="M265,478.6c4.9,0,9.8,1.3,13.3,2.6c0.1-0.6,0.1-1.1,0.1-1.7c0-9-7.2-16.4-16.3-16.5h0c-2.1,0-4,0.4-5.9,1.1
			c0.1,0.5,0.2,1.1,0.3,1.6c0.9,4.3,2.5,8.7,5,13.1C262.6,478.7,263.8,478.6,265,478.6 M263.9,482.9c4.5,6.9,9.9,12.1,13.1,14.9
			c2.8-2.9,5-6.2,6.6-9.9C281,486.6,272.4,482.6,263.9,482.9 M235.8,503.6c4.7,2.7,10,4.3,15.5,4.5c7,0.4,13.8-1.6,19.7-5.4
			c-0.2,0-0.4-0.1-0.5-0.1l-0.9-0.2c-0.2-0.1-0.4-0.1-0.5-0.1l-5.7-1.2c-0.2,0-0.3-0.1-0.4-0.1l-2.1-0.4c-0.3-0.1-0.4-0.1-0.6-0.1
			l-3.3-0.6c-0.2,0-0.4-0.1-0.6-0.1l-6.2-0.7c-0.2,0-0.4,0-0.6,0l-3.4-0.1l-1,0c-0.5,0-0.9,0-1.2,0.1
			C240.5,499.3,236.6,500.3,235.8,503.6"/>
		<path class="st0" d="M252.7,440.7c-18.5,0-33.7,15.1-33.8,33.6c-0.1,10.7,4.9,20.8,13.4,27.2c0.2-0.4,0.4-0.8,0.6-1.2
			c1.8-3,5.4-4.8,10.6-5.2c0.8-0.1,1.8-0.1,2.7-0.1c7.9,0,19,2.3,25.6,3.9c-6.2-6-16.5-17.7-19.4-32.2c-2.3-11.5,2.4-18.6,6.7-22.5
			c0.9-0.8,1.8-1.5,2.8-2.2c-2.9-0.8-6-1.3-9.1-1.3L252.7,440.7z"/>
		<path class="st0" d="M306.3,466.7l-3.4,10.9h8.4l-3.3-10.9l-0.8-2.9h-0.1L306.3,466.7z M312.7,481.9h-11.1l-1.9,6h-5.4l9.9-27.8
			h6.1l10,27.8h-5.7L312.7,481.9z"/>
		<polygon class="st0" points="340,464.8 340,487.9 334.8,487.9 334.8,464.8 327,464.8 327.1,460.1 347.7,460.1 347.8,464.8 		"/>
		<path class="st0" d="M362.2,474.6c-0.1-3.9-1.9-5.4-4.6-5.4c-3.2,0-4.6,1.6-4.8,5.4H362.2z M348,476.3c0-7.1,3.1-11.1,9.5-11.1
			c5.5,0,9,3.2,9,10.3c0,0.7,0,1.6-0.1,2.3h-13.6c0.2,4.7,2.2,6.3,6.4,6.3c2.2,0,4.1-0.4,6-1.2l0.6,3.9c-1.9,0.9-4.3,1.5-7.1,1.5
			C351.2,488.3,348,484.3,348,476.3"/>
		<path class="st0" d="M384.1,487.9v-14.4c0-2.8-1.5-4-4.3-4c-1.7,0-3.5,0.7-4.4,2v16.4h-4.7v-22.2l3.4-0.3l0.7,2.1
			c1.7-1.6,3.9-2.4,6.3-2.4c4.7,0,7.7,2.9,7.7,8.3v14.4H384.1z"/>
		<path class="st0" d="M399.6,469.2v12.4c0,2,1,2.8,2.9,2.8c0.6,0,1.4-0.1,1.8-0.3l0.3,3.5c-0.7,0.3-2.1,0.6-3.5,0.6
			c-4.2,0-6.3-2.4-6.3-6.5v-12.5h-2.8v-3.6h2.9l0.9-5.2l3.7-0.4v5.6h5.2v3.6H399.6z"/>
		<path class="st0" d="M420,478.1c-0.6-0.3-1.9-0.6-3.8-0.6c-3,0-4.4,1.2-4.4,3.5c0,2.6,1.6,3.5,3.7,3.5c2.3,0,4.4-1.5,4.4-3.1
			V478.1z M420.7,485.5l-0.1,0c-1.4,1.7-3.6,2.8-6.3,2.8c-4.1,0-6.9-2.3-6.9-7.3c0-4.2,2.8-6.9,8-6.9c1.7,0,3.4,0.3,4.6,0.7v-1.7
			c0-2.8-1.3-3.9-4.7-3.9c-2.4,0-4.1,0.4-6.2,1.3l-0.4-3.9c2.2-1,4.7-1.4,7.4-1.4c6.2,0,8.5,2.7,8.5,8.7v14h-3.6L420.7,485.5z"/>
		<path class="st0" d="M454.5,487.9v-14.5c0-2.7-1.5-3.9-3.9-3.9c-2.1,0-3.8,1.2-3.8,3.6v14.7h-4.7v-14.7c0-2.6-1.6-3.7-3.8-3.7
			c-1.6,0-3.2,0.8-4,2v16.4h-4.7v-22.2l3.4-0.2l0.8,2.2c1.5-1.6,3.6-2.5,5.7-2.5c2.9,0,4.8,1,6,3.2c1.4-2.2,3.6-3.2,6.3-3.2
			c4.3,0,7.4,2.7,7.4,8.1v14.5H454.5z"/>
		<path class="st0" d="M482.1,480.2c0,5.2-3,8-9.1,8c-6.1,0-9-2.9-9-8v-14.7h4.7v14.6c0,2.6,1.4,3.9,4.4,3.9c2.9,0,4.3-1.3,4.3-3.9
			v-14.6h4.7V480.2z"/>
		<path class="st0" d="M493.2,488.3c-2.7,0-5.1-0.6-6.9-1.7l0.6-4c1.7,1.1,4.3,1.7,6.4,1.7c2.7,0,3.8-1.2,3.8-2.9
			c0-4.2-10.8-2-10.8-9.7c0-3.9,2.7-6.6,8.1-6.6c2.2,0,4.3,0.4,6.2,1.3l-0.4,3.9c-1.8-0.8-4.1-1.1-5.9-1.1c-2.2,0-3.6,0.9-3.6,2.4
			c0,3.9,10.7,1.7,10.7,9.5C501.4,485.4,499,488.3,493.2,488.3"/>
		<path class="st0" d="M533.6,465.3c-1.4-0.6-3.5-1-5.6-1c-5.4,0-7.4,2.3-7.4,9.5c0,7.6,2.1,10,7.6,10c2.1,0,4-0.5,5.6-1.2l0.6,4.3
			c-1.8,0.9-4.4,1.6-6.9,1.6c-8.3,0-12.3-4.6-12.3-14.6c0-9.4,3.9-14.1,12.5-14.1c2.3,0,4.9,0.6,6.4,1.2L533.6,465.3z"/>
		<path class="st0" d="M546.9,484.4c3.7,0,5-1.8,5-7.6c0-5.8-1.4-7.6-5-7.6c-3.7,0-5.1,1.8-5.1,7.6
			C541.8,482.7,543.2,484.4,546.9,484.4 M546.9,488.4c-6.9,0-10-3.3-10-11.6c0-8.2,3.1-11.6,10-11.6c6.9,0,9.9,3.4,9.9,11.6
			C556.8,485.1,553.8,488.4,546.9,488.4"/>
		<path class="st0" d="M585.8,487.9v-14.5c0-2.7-1.5-3.9-3.9-3.9c-2.1,0-3.8,1.2-3.8,3.6v14.7h-4.7v-14.7c0-2.6-1.6-3.7-3.8-3.7
			c-1.6,0-3.2,0.8-4,2v16.4H561v-22.2l3.4-0.2l0.8,2.2c1.5-1.6,3.6-2.5,5.7-2.5c2.9,0,4.8,1,6,3.2c1.4-2.2,3.6-3.2,6.3-3.2
			c4.3,0,7.4,2.7,7.4,8.1v14.5H585.8z"/>
		<path class="st0" d="M604.9,469.5c-2,0-3.6,0.8-4.6,2.2V482c0.8,1.3,2.2,2.3,4.4,2.3c3,0,5-1.4,5-7.6
			C609.8,471,608.2,469.5,604.9,469.5 M605.9,488.3c-2.1,0-4.1-0.5-5.6-2.1l-0.1,0l0.1,3v4.2h-4.8v-27.7l3.3-0.2l0.9,2.1
			c1.6-1.5,3.8-2.4,6.3-2.4c5.5,0,8.5,2.9,8.5,11.5C614.6,484.7,611.2,488.3,605.9,488.3"/>
		<path class="st0" d="M630.5,478.1c-0.6-0.3-1.9-0.6-3.8-0.6c-3,0-4.4,1.2-4.4,3.5c0,2.6,1.5,3.5,3.7,3.5c2.3,0,4.4-1.5,4.4-3.1
			V478.1z M631.2,485.5l-0.1,0c-1.4,1.7-3.6,2.8-6.3,2.8c-4.1,0-6.9-2.3-6.9-7.3c0-4.2,2.8-6.9,8-6.9c1.7,0,3.4,0.3,4.6,0.7v-1.7
			c0-2.8-1.3-3.9-4.7-3.9c-2.4,0-4.1,0.4-6.2,1.3l-0.4-3.9c2.2-1,4.7-1.4,7.4-1.4c6.2,0,8.5,2.7,8.5,8.7v14h-3.6L631.2,485.5z"/>
		<path class="st0" d="M653.6,487.9v-14.4c0-2.8-1.5-4-4.3-4c-1.7,0-3.5,0.7-4.4,2v16.4h-4.7v-22.2l3.4-0.3l0.7,2.1
			c1.7-1.6,3.9-2.4,6.3-2.4c4.7,0,7.7,2.9,7.7,8.3v14.4H653.6z"/>
		<path class="st0" d="M671.1,487.9l0.1-0.3l-9.7-22h5.4l5.5,14.8l1,2.8h0.1l0.7-2.9l4.3-14.7h5l-7.9,22.4c-1.6,4.4-4,6-7.5,6
			c-1.3,0-2.6-0.2-3.6-0.7l0.4-3.4c0.8,0.4,1.6,0.6,2.4,0.6C669.1,490.4,670.3,489.8,671.1,487.9"/>
	</g>
</g>
<g>
	<path class="st0" d="M11.3,374.7H3.7v-76.6h7.6V374.7z"/>
	<path class="st0" d="M44,370.6h-0.2c-2.1,2.9-5.2,4.9-9.2,4.9c-11.6,0-13.3-13.2-13.3-27.4c0-14.2,1.5-26.3,13.9-26.3
		c3.9,0,6.4,1.5,8.6,4.4H44v-32.7H51v81.2H44V370.6z M36.8,327.1c-7.9,0-8.3,13-8.3,20.4c0,4.9-1.1,22.5,7.9,22.5
		c7.5,0,8.1-8.6,8.1-22.3C44.6,335.9,43.3,327.1,36.8,327.1z"/>
	<path class="st0" d="M66.7,350v1.5c0,5.2,1,17.8,8.7,17.8c6.2,0,7.1-8.1,7.1-12.3h7.3c-0.1,7.9-3.4,18.5-13.7,18.5
		c-14.7,0-16.6-16.2-16.6-26.7c0-9.3,2.2-27,15.6-27c13,0,15.1,15.9,15.1,25.1v3.1H66.7z M83,344.4l-0.1-0.9
		c-0.2-5-0.4-15.5-7.8-15.5c-6.7,0-8.3,11.8-8.3,16.5H83z"/>
	<path class="st0" d="M105.6,326.7c2.8-3,6.6-5,11-5c9.9,0,10.8,8.5,10.8,15.6v37.3h-7.1v-36.6c0-6.2-0.4-11-6.3-11
		c-8,0-8.4,8.2-8.4,13.7v33.8h-7.1v-52.1h7.1V326.7z"/>
	<path class="st0" d="M156.5,328.7h-9.2v46h-7.1v-46h-6v-6.1h6v-14.2h7.1v14.2h9.2V328.7z"/>
	<path class="st0" d="M163.9,312.1c-2.9,0-5.3-2.2-5.3-5c0-2.6,2.4-4.9,5.3-4.9c2.8,0,5.2,2.2,5.2,4.9
		C169.1,309.9,166.7,312.1,163.9,312.1z M167.4,374.7h-7.1v-52.1h7.1V374.7z"/>
	<path class="st0" d="M194.8,328.7h-9.2v46h-7.1v-46h-6v-6.1h6v-15.3c0-8.8,2.5-14.6,10.4-14.6c2.1,0,4.2,0.3,6.2,1.1v7.2
		c-1.5-1.1-3-2.2-5.1-2.2c-3.9,0-4.5,3.1-4.5,8.3v15.5h9.2V328.7z"/>
	<path class="st0" d="M211.3,394.6h-7.4l5.5-21.3l-13.3-50.7h7.2l9.3,42h0.3c1-4.5,1.8-8.9,2.9-13.4l7.2-28.6h7.4L211.3,394.6z"/>
	<path class="st0" d="M278.5,328.7h-9.2v46h-7.1v-46h-6v-6.1h6v-14.2h7.1v14.2h9.2V328.7z"/>
	<path class="st0" d="M289.4,326.7c2.8-3,6.6-5,11-5c10.2,0,10.8,8.3,10.8,15.6v37.3H304v-36.2c0-8.1-1-11.4-6.3-11.4
		c-8,0-8.4,8.2-8.4,13.7v33.8h-7.1v-81.2h7.1V326.7z"/>
	<path class="st0" d="M326.8,350v1.5c0,5.2,1,17.8,8.7,17.8c6.2,0,7.1-8.1,7.1-12.3h7.3c-0.1,7.9-3.4,18.5-13.7,18.5
		c-14.7,0-16.6-16.2-16.6-26.7c0-9.3,2.2-27,15.6-27c13,0,15.1,15.9,15.1,25.1v3.1H326.8z M343,344.4l-0.1-0.9
		c-0.2-5-0.4-15.5-7.8-15.5c-6.7,0-8.3,11.8-8.3,16.5H343z"/>
	<path class="st0" d="M383,298.1h8.3c15.6,0,25.9,1.8,25.9,38.3c0,30-5.2,38.3-25.3,38.3H383V298.1z M390.6,368.2h2.2
		c14.7,0,16.5-9.6,16.5-31.8c0-26.3-2.9-31.8-17.4-31.8h-1.3V368.2z"/>
	<path class="st0" d="M430,312.1c-2.9,0-5.3-2.2-5.3-5c0-2.6,2.4-4.9,5.3-4.9c2.8,0,5.2,2.2,5.2,4.9
		C435.2,309.9,432.8,312.1,430,312.1z M433.4,374.7h-7.1v-52.1h7.1V374.7z"/>
	<path class="st0" d="M460,328.7h-8.4v46h-7.1v-46h-6v-6.1h6v-15.3c0-8.8,2.5-14.6,10.4-14.6c2.1,0,4.2,0.3,6.2,1.1v7.2
		c-1.5-1.1-3-2.2-5.1-2.2c-3.9,0-4.5,3.1-4.5,8.3v15.5h8.4V328.7z"/>
	<path class="st0" d="M483.6,328.7h-9.2v46h-7.1v-46h-4.4v-6.1h4.4v-15.3c0-8.8,2.5-14.6,10.4-14.6c2.1,0,4.2,0.3,6.2,1.1v7.2
		c-1.5-1.1-3-2.2-5.1-2.2c-3.9,0-4.5,3.1-4.5,8.3v15.5h9.2V328.7z"/>
	<path class="st0" d="M494.7,350v1.5c0,5.2,1,17.8,8.7,17.8c6.2,0,7.1-8.1,7.1-12.3h7.3c-0.1,7.9-3.4,18.5-13.7,18.5
		c-14.7,0-16.6-16.2-16.6-26.7c0-9.3,2.2-27,15.6-27c13,0,15.1,15.9,15.1,25.1v3.1H494.7z M511,344.4l-0.1-0.9
		c-0.2-5-0.4-15.5-7.8-15.5c-6.7,0-8.3,11.8-8.3,16.5H511z"/>
	<path class="st0" d="M533.6,329.5h0.2c1.5-3.7,4.6-7.8,9.2-7.7v7.7l-1.4-0.1c-7.3,0-8,6.6-8,14.9v30.4h-7.1v-52.1h7.1V329.5z"/>
	<path class="st0" d="M554.7,350v1.5c0,5.2,1,17.8,8.7,17.8c6.2,0,7.1-8.1,7.1-12.3h7.3c-0.1,7.9-3.4,18.5-13.7,18.5
		c-14.7,0-16.6-16.2-16.6-26.7c0-9.3,2.2-27,15.6-27c13,0,15.1,15.9,15.1,25.1v3.1H554.7z M571,344.4l-0.1-0.9
		c-0.2-5-0.4-15.5-7.8-15.5c-6.7,0-8.3,11.8-8.3,16.5H571z"/>
	<path class="st0" d="M593.6,326.7c2.8-3,6.6-5,11-5c9.9,0,10.8,8.5,10.8,15.6v37.3h-7.1v-36.6c0-6.2-0.4-11-6.3-11
		c-8,0-8.4,8.2-8.4,13.7v33.8h-7.1v-52.1h7.1V326.7z"/>
	<path class="st0" d="M647.7,331.4c-1.7-1.7-4-3.5-6.7-3.5c-9.1,0-10,14.8-10,20.8c0,5.2,1.2,20.5,9.6,20.5c3.3,0,5.3-2.3,7-4.7h0.2
		v8.2c-2.1,1.6-5.3,2.6-8,2.6c-12.8,0-16-16.9-16-25.8c0-9.8,2.2-27.9,16.3-27.9c2.6,0,5.4,0.7,7.7,2V331.4z"/>
	<path class="st0" d="M661.4,350v1.5c0,5.2,1,17.8,8.7,17.8c6.2,0,7.1-8.1,7.1-12.3h7.3c-0.1,7.9-3.4,18.5-13.7,18.5
		c-14.7,0-16.6-16.2-16.6-26.7c0-9.3,2.2-27,15.6-27c13,0,15.1,15.9,15.1,25.1v3.1H661.4z M677.7,344.4l-0.1-0.9
		c-0.2-5-0.4-15.5-7.8-15.5c-6.7,0-8.3,11.8-8.3,16.5H677.7z"/>
</g>
<g>
	<g>
		<path class="st0" d="M36.4,48.5H12.5V24.6h23.9V48.5z M36.4,12.6H12.5c-6.6,0-12,5.4-12,12v23.9c0,6.6,5.3,12,12,12h23.9
			c6.6,0,12-5.4,12-12V24.6C48.4,18,43,12.6,36.4,12.6"/>
	</g>
</g>
<g>
	<g>
		<path class="st0" d="M99.9,48.5H76V24.6h23.9V48.5z M99.9,12.6H76c-6.6,0-12,5.4-12,12v23.9c0,6.6,5.3,12,12,12h23.9
			c6.6,0,12-5.4,12-12V24.6C111.9,18,106.5,12.6,99.9,12.6"/>
	</g>
</g>
<g>
	<g>
		<path class="st0" d="M163.4,48.5h-23.9V24.6h23.9V48.5z M163.4,12.6h-23.9c-6.6,0-12,5.4-12,12v23.9c0,6.6,5.4,12,12,12h23.9
			c6.6,0,12-5.4,12-12V24.6C175.4,18,170.1,12.6,163.4,12.6"/>
	</g>
</g>
<g>
	<g>
		<path class="st0" d="M227,48.5h-23.9V24.6H227V48.5z M227,12.6h-23.9c-6.6,0-12,5.4-12,12v23.9c0,6.6,5.4,12,12,12H227
			c6.6,0,12-5.4,12-12V24.6C238.9,18,233.6,12.6,227,12.6"/>
	</g>
</g>
<g>
	<g>
		<path class="st0" d="M36.4,110H12.5V86.1h23.9V110z M36.4,74.1H12.5c-6.6,0-12,5.4-12,12V110c0,6.6,5.3,12,12,12h23.9
			c6.6,0,12-5.4,12-12V86.1C48.4,79.4,43,74.1,36.4,74.1"/>
	</g>
</g>
<g>
	<g>
		<path class="st0" d="M99.9,110H76V86.1h23.9V110z M99.9,74.1H76c-6.6,0-12,5.4-12,12V110c0,6.6,5.3,12,12,12h23.9
			c6.6,0,12-5.4,12-12V86.1C111.9,79.4,106.5,74.1,99.9,74.1"/>
	</g>
</g>
<g>
	<g>
		<path class="st0" d="M163.4,110h-23.9V86.1h23.9V110z M163.4,74.1h-23.9c-6.6,0-12,5.4-12,12V110c0,6.6,5.4,12,12,12h23.9
			c6.6,0,12-5.4,12-12V86.1C175.4,79.4,170.1,74.1,163.4,74.1"/>
	</g>
</g>
<g>
	<g>
		<path class="st0" d="M227,110h-23.9V86.1H227V110z M227,74.1h-23.9c-6.6,0-12,5.4-12,12V110c0,6.6,5.4,12,12,12H227
			c6.6,0,12-5.4,12-12V86.1C238.9,79.4,233.6,74.1,227,74.1"/>
	</g>
</g>
<g>
	<g>
		<path class="st0" d="M36.4,171.5H12.5v-23.9h23.9V171.5z M36.4,135.6H12.5c-6.6,0-12,5.4-12,12v23.9c0,6.6,5.3,12,12,12h23.9
			c6.6,0,12-5.4,12-12v-23.9C48.4,141,43,135.6,36.4,135.6"/>
	</g>
</g>
<g>
	<g>
		<path class="st0" d="M163.4,171.5h-23.9v-23.9h23.9V171.5z M163.4,135.6h-23.9c-6.6,0-12,5.4-12,12v23.9c0,6.6,5.4,12,12,12h23.9
			c6.6,0,12-5.4,12-12v-23.9C175.4,141,170.1,135.6,163.4,135.6"/>
	</g>
</g>
<g>
	<g>
		<path class="st0" d="M227,171.5h-23.9v-23.9H227V171.5z M227,135.6h-23.9c-6.6,0-12,5.4-12,12v23.9c0,6.6,5.4,12,12,12H227
			c6.6,0,12-5.4,12-12v-23.9C238.9,141,233.6,135.6,227,135.6"/>
	</g>
</g>
<g>
	<g>
		<path class="st0" d="M36.4,233H12.5v-23.9h23.9V233z M36.4,197.1H12.5c-6.6,0-12,5.4-12,12V233c0,6.6,5.3,12,12,12h23.9
			c6.6,0,12-5.4,12-12v-23.9C48.4,202.4,43,197.1,36.4,197.1"/>
	</g>
</g>
<g>
	<g>
		<path class="st0" d="M99.9,233H76v-23.9h23.9V233z M99.9,197.1H76c-6.6,0-12,5.4-12,12V233c0,6.6,5.3,12,12,12h23.9
			c6.6,0,12-5.4,12-12v-23.9C111.9,202.4,106.5,197.1,99.9,197.1"/>
	</g>
</g>
<g>
	<g>
		<path class="st0" d="M163.4,233h-23.9v-23.9h23.9V233z M163.4,197.1h-23.9c-6.6,0-12,5.4-12,12V233c0,6.6,5.4,12,12,12h23.9
			c6.6,0,12-5.4,12-12v-23.9C175.4,202.4,170.1,197.1,163.4,197.1"/>
	</g>
</g>
<g>
	<g>
		<path class="st0" d="M227,233h-23.9v-23.9H227V233z M227,197.1h-23.9c-6.6,0-12,5.4-12,12V233c0,6.6,5.4,12,12,12H227
			c6.6,0,12-5.4,12-12v-23.9C238.9,202.4,233.6,197.1,227,197.1"/>
	</g>
</g>
<path class="st0" d="M115.6,158.8c0,15.2-12.4,27.6-27.6,27.6c-15.2,0-27.6-12.4-27.6-27.6c0-15.3,12.4-27.6,27.6-27.6
	C103.2,131.2,115.6,143.6,115.6,158.8z"/>
<path class="st0" d="M451.5,251.6C450,243.9,400.1,3.5,400.1,3.5s-0.2-3.9-5.4-3.9c-5.2,0-11.6,0-11.6,0h-9.9
	c-3.9,0-4.5,4.7-4.5,4.7l-50.6,250.6c0,0,0.4,4.3,4.5,4.3c4,0,25.8,0,25.8,0s3.5,0.4,4.7-5.8c1.2-6.2,8.3-45.4,8.3-45.4h47.1l8.3,45
	c0,0,0.2,6.2,5.4,6.2c5.2,0,25.2,0,25.2,0S453.1,259.4,451.5,251.6z M367,178.3L384,68.5l19,109.8H367z"/>
<path class="st0" d="M476.8-0.4c0,0-5.8-0.1-5.8,4.7c0,4.8,0.2,250.6,0.2,250.6s-0.6,4.3,5.6,4.3c6.2,0,22.3,0,22.3,0s5,0.4,5-6.2
	c0-6.6,0-113.3,0-113.3l50.1-0.2c0,0,5.4-0.2,5.4-5.2c0-5,0-19.8,0-19.8s0.4-5.4-6.2-5.4c-6.6,0-49.3,0.2-49.3,0.2V30.1H558
	c0,0,4.5-0.8,4.5-5.8c0-5,0-20,0-20s0.2-4.7-6-4.7C550.3-0.4,476.8-0.4,476.8-0.4z"/>
<path class="st0" d="M596.3,4.3c0,0-0.2-4.4,4.4-4.4c4.7,0,23.1,0,23.1,0s4.9,0,4.9,4.9c0,4.8,0.3,224.2,0.3,224.2h50.2
	c0,0,6,0,6,6.2c0,6.2,0,19.7,0,19.7s0,4.3-6,4.3c-6,0-77.6,0-77.6,0s-5.2,0.2-5.2-6C596.3,247,596.3,4.3,596.3,4.3z"/>
</svg>
